<svg width="22" height="22" viewBox="0 0 22 22" fill="none" xmlns="http://www.w3.org/2000/svg">
<path d="M11.0839 0.117188C5.06054 0.117188 0.175293 5.00153 0.175293 11.0258C0.175293 15.8456 3.30062 19.9345 7.63589 21.3772C8.18042 21.4781 8.35677 21.1399 8.35677 20.8527V18.8219C5.32235 19.4818 4.69056 17.5346 4.69056 17.5346C4.19422 16.2738 3.47879 15.9383 3.47879 15.9383C2.48883 15.2611 3.55424 15.2756 3.55424 15.2756C4.64965 15.352 5.22599 16.4001 5.22599 16.4001C6.19868 18.0674 7.7777 17.5856 8.40041 17.3065C8.49767 16.602 8.78039 16.1202 9.0931 15.8484C6.67048 15.5711 4.12331 14.6357 4.12331 10.4568C4.12331 9.26499 4.54966 8.2923 5.2469 7.5287C5.13418 7.25325 4.76056 6.1433 5.35326 4.64155C5.35326 4.64155 6.26959 4.34883 8.35404 5.75968C9.22401 5.51787 10.1567 5.39697 11.0839 5.39242C12.0112 5.39697 12.9448 5.51787 13.8165 5.75968C15.8992 4.34883 16.8137 4.64155 16.8137 4.64155C17.4073 6.14421 17.0337 7.25416 16.921 7.5287C17.6209 8.2923 18.0436 9.2659 18.0436 10.4568C18.0436 14.6466 15.4919 15.5693 13.0629 15.8393C13.4538 16.1774 13.8111 16.841 13.8111 17.8592V20.8527C13.8111 21.1427 13.9856 21.4836 14.5392 21.3763C18.8709 19.9318 21.9926 15.8438 21.9926 11.0258C21.9926 5.00153 17.1082 0.117188 11.0839 0.117188Z" fill="#333333"/>
</svg>
