<svg width="33" height="33" viewBox="0 0 33 33" fill="none" xmlns="http://www.w3.org/2000/svg">
<path d="M16.7168 3.87354C9.3572 3.87354 3.38818 9.84144 3.38818 17.2022C3.38818 23.0912 7.20684 28.0872 12.5039 29.85C13.1692 29.9732 13.3847 29.5601 13.3847 29.2091V26.7277C9.67708 27.5341 8.90513 25.1549 8.90513 25.1549C8.29868 23.6144 7.42454 23.2045 7.42454 23.2045C6.21497 22.377 7.51673 22.3948 7.51673 22.3948C8.85515 22.4881 9.55935 23.7688 9.55935 23.7688C10.7478 25.8058 12.6771 25.2171 13.438 24.8761C13.5568 24.0153 13.9023 23.4267 14.2844 23.0946C11.3243 22.7558 8.21204 21.6129 8.21204 16.5069C8.21204 15.0507 8.73297 13.8622 9.58489 12.9292C9.44716 12.5927 8.99066 11.2365 9.71485 9.40159C9.71485 9.40159 10.8345 9.04394 13.3813 10.7678C14.4443 10.4723 15.5839 10.3246 16.7168 10.319C17.8498 10.3246 18.9905 10.4723 20.0557 10.7678C22.6003 9.04394 23.7177 9.40159 23.7177 9.40159C24.443 11.2376 23.9865 12.5938 23.8488 12.9292C24.704 13.8622 25.2205 15.0518 25.2205 16.5069C25.2205 21.6262 22.1027 22.7536 19.1349 23.0834C19.6125 23.4966 20.049 24.3075 20.049 25.5515V29.2091C20.049 29.5634 20.2622 29.9799 20.9387 29.8488C26.2313 28.0839 30.0455 23.089 30.0455 17.2022C30.0455 9.84144 24.0776 3.87354 16.7168 3.87354Z" fill="#333333"/>
</svg>
