<svg width="22" height="22" viewBox="0 0 22 22" fill="none" xmlns="http://www.w3.org/2000/svg">
<path d="M11.188 2.03499C14.0288 2.03499 14.3657 2.04563 15.4882 2.09705C18.3715 2.22827 19.7184 3.59636 19.8496 6.45843C19.901 7.58002 19.9108 7.91695 19.9108 10.7577C19.9108 13.5994 19.9001 13.9355 19.8496 15.057C19.7175 17.9165 18.3742 19.2872 15.4882 19.4184C14.3657 19.4698 14.0306 19.4805 11.188 19.4805C8.34721 19.4805 8.01029 19.4698 6.88869 19.4184C3.99825 19.2863 2.65854 17.912 2.52732 15.0562C2.47589 13.9346 2.46525 13.5985 2.46525 10.7569C2.46525 7.91606 2.47678 7.58003 2.52732 6.45754C2.65943 3.59636 4.00268 2.22739 6.88869 2.09617C8.01118 2.04563 8.34721 2.03499 11.188 2.03499ZM11.188 0.117188C8.29845 0.117188 7.9367 0.1296 6.8018 0.181025C2.93783 0.358353 0.790392 2.50225 0.613064 6.36976C0.560753 7.50555 0.54834 7.8673 0.54834 10.7569C0.54834 13.6464 0.560753 14.009 0.612178 15.1439C0.789506 19.0079 2.9334 21.1553 6.80092 21.3327C7.9367 21.3841 8.29845 21.3965 11.188 21.3965C14.0776 21.3965 14.4402 21.3841 15.5751 21.3327C19.4355 21.1553 21.5883 19.0115 21.7629 15.1439C21.8153 14.009 21.8277 13.6464 21.8277 10.7569C21.8277 7.8673 21.8153 7.50555 21.7638 6.37065C21.59 2.51023 19.4435 0.35924 15.576 0.181912C14.4402 0.1296 14.0776 0.117188 11.188 0.117188V0.117188ZM11.188 5.29338C8.17077 5.29338 5.72454 7.73962 5.72454 10.7569C5.72454 13.7741 8.17077 16.2212 11.188 16.2212C14.2052 16.2212 16.6515 13.775 16.6515 10.7569C16.6515 7.73962 14.2052 5.29338 11.188 5.29338ZM11.188 14.3034C9.22942 14.3034 7.64145 12.7163 7.64145 10.7569C7.64145 8.79827 9.22942 7.2103 11.188 7.2103C13.1466 7.2103 14.7346 8.79827 14.7346 10.7569C14.7346 12.7163 13.1466 14.3034 11.188 14.3034ZM16.8678 3.80117C16.162 3.80117 15.5902 4.37305 15.5902 5.07793C15.5902 5.78281 16.162 6.35469 16.8678 6.35469C17.5727 6.35469 18.1437 5.78281 18.1437 5.07793C18.1437 4.37305 17.5727 3.80117 16.8678 3.80117Z" fill="#333333"/>
</svg>
