<svg width="33" height="33" viewBox="0 0 33 33" fill="none" xmlns="http://www.w3.org/2000/svg">
<path d="M16.7427 6.21679C20.2137 6.21679 20.6253 6.22979 21.9968 6.29262C25.5198 6.45295 27.1654 8.12454 27.3258 11.6215C27.3886 12.992 27.4005 13.4036 27.4005 16.8746C27.4005 20.3467 27.3875 20.7573 27.3258 22.1277C27.1643 25.6215 25.5231 27.2963 21.9968 27.4566C20.6253 27.5195 20.2158 27.5325 16.7427 27.5325C13.2717 27.5325 12.86 27.5195 11.4896 27.4566C7.95793 27.2952 6.32101 25.616 6.16068 22.1266C6.09784 20.7562 6.08484 20.3456 6.08484 16.8735C6.08484 13.4025 6.09893 12.992 6.16068 11.6205C6.32209 8.12454 7.96334 6.45187 11.4896 6.29154C12.8611 6.22979 13.2717 6.21679 16.7427 6.21679V6.21679ZM16.7427 3.87354C13.2121 3.87354 12.7701 3.8887 11.3834 3.95154C6.66226 4.1682 4.03843 6.7877 3.82176 11.5132C3.75784 12.901 3.74268 13.343 3.74268 16.8735C3.74268 20.4041 3.75784 20.8472 3.82068 22.2339C4.03734 26.955 6.65684 29.5789 11.3823 29.7955C12.7701 29.8584 13.2121 29.8735 16.7427 29.8735C20.2733 29.8735 20.7163 29.8584 22.103 29.7955C26.8198 29.5789 29.4502 26.9594 29.6636 22.2339C29.7275 20.8472 29.7427 20.4041 29.7427 16.8735C29.7427 13.343 29.7275 12.901 29.6647 11.5143C29.4523 6.79745 26.8296 4.16929 22.1041 3.95262C20.7163 3.8887 20.2733 3.87354 16.7427 3.87354V3.87354ZM16.7427 10.198C13.0561 10.198 10.0672 13.187 10.0672 16.8735C10.0672 20.5601 13.0561 23.5501 16.7427 23.5501C20.4293 23.5501 23.4182 20.5612 23.4182 16.8735C23.4182 13.187 20.4293 10.198 16.7427 10.198ZM16.7427 21.2069C14.3496 21.2069 12.4093 19.2677 12.4093 16.8735C12.4093 14.4805 14.3496 12.5402 16.7427 12.5402C19.1358 12.5402 21.076 14.4805 21.076 16.8735C21.076 19.2677 19.1358 21.2069 16.7427 21.2069ZM23.6825 8.37479C22.8202 8.37479 22.1214 9.07354 22.1214 9.93479C22.1214 10.796 22.8202 11.4948 23.6825 11.4948C24.5438 11.4948 25.2414 10.796 25.2414 9.93479C25.2414 9.07354 24.5438 8.37479 23.6825 8.37479Z" fill="#333333"/>
</svg>
