<svg width="22" height="18" viewBox="0 0 22 18" fill="none" xmlns="http://www.w3.org/2000/svg">
<path d="M21.3658 2.15784C20.5829 2.50541 19.7414 2.73948 18.8583 2.84499C19.7601 2.30503 20.4525 1.44942 20.7779 0.429786C19.9347 0.92985 19.0002 1.29337 18.0054 1.48932C17.2101 0.640806 16.0743 0.110596 14.8188 0.110596C12.0002 0.110596 9.929 2.74037 10.5656 5.47033C6.93837 5.28857 3.72164 3.55075 1.568 0.909457C0.424235 2.87159 0.974838 5.43841 2.91835 6.73822C2.20372 6.71517 1.52987 6.51922 0.942032 6.19205C0.894154 8.21447 2.34381 10.1066 4.44337 10.5277C3.82893 10.6944 3.15597 10.7334 2.47148 10.6022C3.02652 12.3365 4.63843 13.5981 6.55002 13.6336C4.71468 15.0726 2.40233 15.7154 0.0864258 15.4424C2.01841 16.681 4.31392 17.4036 6.77877 17.4036C14.8844 17.4036 19.4639 10.5579 19.1873 4.41789C20.0402 3.80167 20.7806 3.03296 21.3658 2.15784Z" fill="#333333"/>
</svg>
