<svg width="33" height="33" viewBox="0 0 33 33" fill="none" xmlns="http://www.w3.org/2000/svg">
<path d="M32.7215 6.95157C31.5444 7.47413 30.2793 7.82606 28.9516 7.98469C30.3073 7.17286 31.3484 5.88646 31.8376 4.35344C30.5699 5.10528 29.1649 5.65184 27.6692 5.94644C26.4734 4.6707 24.7658 3.87354 22.8781 3.87354C18.6403 3.87354 15.5263 7.82739 16.4835 11.9319C11.0299 11.6586 6.19357 9.04581 2.95557 5.07462C1.23592 8.02468 2.06375 11.8839 4.98582 13.8382C3.91137 13.8035 2.89825 13.5089 2.01443 13.017C1.94244 16.0577 4.122 18.9025 7.27868 19.5357C6.35487 19.7863 5.34308 19.8449 4.31396 19.6476C5.14845 22.2551 7.57196 24.152 10.446 24.2054C7.6866 26.3689 4.20998 27.3354 0.728027 26.9248C3.63276 28.7871 7.08406 29.8735 10.79 29.8735C22.9768 29.8735 29.862 19.581 29.4461 10.3495C30.7285 9.42306 31.8416 8.2673 32.7215 6.95157V6.95157Z" fill="#333333"/>
</svg>
