<?xml version="1.0" standalone="no"?>
<!DOCTYPE svg PUBLIC "-//W3C//DTD SVG 20010904//EN"
 "http://www.w3.org/TR/2001/REC-SVG-20010904/DTD/svg10.dtd">
<svg version="1.0" xmlns="http://www.w3.org/2000/svg"
 width="756.000000pt" height="756.000000pt" viewBox="0 0 756.000000 756.000000"
 preserveAspectRatio="xMidYMid meet">
<metadata>
Created by potrace 1.14, written by Peter Selinger 2001-2017
</metadata>
<g transform="translate(0.000000,756.000000) scale(0.100000,-0.100000)"
fill="#000000" stroke="none">
<path d="M3495 7554 c-291 -30 -442 -55 -660 -111 -599 -153 -1165 -462 -1615
-881 -676 -630 -1078 -1411 -1197 -2327 -26 -200 -26 -710 0 -910 105 -807
440 -1531 975 -2105 630 -676 1411 -1078 2327 -1197 200 -26 710 -26 910 0
807 105 1531 440 2105 975 676 630 1078 1411 1197 2327 26 200 26 710 0 910
-105 807 -440 1531 -975 2105 -620 666 -1394 1069 -2287 1191 -116 16 -216 21
-445 24 -162 1 -313 1 -335 -1z m645 -158 c223 -24 361 -50 620 -116 25 -7 54
-15 65 -20 11 -4 52 -18 90 -30 39 -12 84 -28 102 -36 17 -8 36 -14 42 -14 6
0 19 -4 29 -10 37 -20 112 -50 126 -50 9 0 16 -4 16 -10 0 -5 5 -10 12 -10 11
0 278 -130 288 -140 5 -5 22 -15 99 -58 77 -42 365 -242 391 -271 3 -3 27 -24
55 -46 27 -22 57 -47 66 -55 9 -8 39 -35 67 -60 29 -24 52 -47 52 -50 0 -3 46
-52 103 -110 161 -165 318 -356 427 -520 39 -58 73 -109 78 -115 4 -5 13 -21
19 -35 7 -14 33 -61 58 -105 43 -75 64 -116 120 -240 40 -86 62 -138 80 -190
10 -27 22 -54 26 -60 4 -5 10 -27 14 -47 l7 -38 -113 0 c-63 0 -161 4 -219 10
-58 6 -233 15 -390 21 -400 15 -445 17 -556 29 -55 6 -247 17 -429 26 -629 29
-1484 70 -1662 81 -80 4 -83 5 -89 31 -20 96 -81 246 -128 315 -14 21 -26 40
-26 43 0 12 -70 93 -140 164 -77 77 -164 148 -235 190 -22 13 -42 26 -45 30
-9 10 -215 110 -227 110 -6 0 -13 4 -15 8 -3 9 -115 52 -198 77 -25 7 -70 21
-100 30 -64 19 -150 42 -200 54 -19 5 -71 19 -115 31 -164 44 -186 50 -238 64
-170 46 -208 55 -253 61 -27 4 -51 11 -54 14 -3 4 -30 12 -60 18 -30 7 -107
27 -170 44 -63 17 -133 36 -155 42 -22 5 -42 11 -44 13 -5 5 78 82 140 129 29
22 59 47 68 55 9 8 32 26 51 40 35 24 50 36 73 55 23 20 155 105 162 105 4 0
51 26 104 58 103 63 359 192 379 192 7 0 12 4 12 9 0 5 14 12 31 16 17 4 42
13 57 21 15 8 35 14 45 14 9 0 17 4 17 8 0 4 25 16 56 25 31 10 75 26 99 37
24 11 50 20 58 20 7 0 17 3 21 7 4 5 31 14 59 21 29 7 79 20 112 28 179 45
334 71 529 89 88 8 162 18 165 21 10 10 421 -4 571 -20z m-2994 -1153 c-41
-142 -46 -161 -46 -177 0 -9 -4 -24 -9 -34 -6 -9 -22 -64 -36 -122 -29 -110
-47 -182 -70 -265 -25 -89 -44 -159 -55 -205 -6 -25 -17 -67 -25 -95 -8 -27
-21 -75 -29 -105 -7 -30 -21 -82 -31 -115 -9 -33 -23 -85 -31 -115 -8 -30 -22
-77 -30 -104 -7 -26 -14 -57 -14 -67 0 -11 -4 -27 -9 -37 -5 -9 -19 -55 -31
-102 -29 -114 -48 -185 -66 -244 -7 -26 -14 -58 -14 -70 0 -13 -3 -26 -7 -30
-8 -7 -21 -54 -46 -161 -7 -27 -15 -54 -18 -60 -4 -5 -10 -30 -14 -55 -4 -24
-11 -51 -16 -60 -4 -8 -13 -35 -18 -60 -6 -25 -17 -70 -25 -100 -8 -30 -23
-82 -31 -115 -26 -93 -44 -160 -61 -222 -14 -53 -21 -80 -54 -213 -6 -25 -15
-52 -19 -60 -5 -9 -12 -36 -16 -60 -4 -24 -11 -51 -16 -60 -4 -8 -13 -35 -18
-60 -6 -25 -16 -70 -24 -100 -16 -63 -19 -59 -44 60 -121 568 -98 1237 61
1765 8 28 20 68 26 90 6 22 15 49 19 60 5 11 19 49 31 85 12 36 28 79 35 95 7
17 18 41 23 55 41 96 60 137 106 230 66 131 113 217 137 252 11 14 19 31 19
36 0 6 4 12 8 14 4 2 26 32 47 68 22 36 44 70 50 76 5 6 17 22 25 34 22 33 83
114 90 120 3 3 17 21 30 40 14 19 32 42 40 51 8 8 26 29 39 45 65 78 145 163
149 159 3 -2 -3 -31 -12 -62z m914 -703 c3 -4 29 -11 57 -15 29 -4 55 -11 59
-16 3 -5 14 -9 24 -9 11 0 39 -6 62 -14 24 -7 68 -21 98 -31 30 -9 71 -27 90
-39 19 -12 55 -36 80 -52 85 -55 146 -127 195 -230 l46 -97 -4 -101 c-4 -108
-23 -235 -38 -251 -5 -5 -9 -17 -9 -28 0 -10 -8 -37 -19 -60 -10 -23 -27 -61
-37 -84 -10 -24 -21 -43 -26 -43 -4 0 -8 -6 -8 -14 0 -7 -10 -24 -22 -38 -13
-14 -30 -34 -39 -44 -90 -105 -249 -155 -424 -135 -95 12 -198 32 -210 42 -6
4 -34 11 -63 15 -28 3 -52 10 -52 15 0 5 -10 9 -22 9 -12 0 -49 8 -81 18 l-59
17 7 50 c3 27 10 54 15 60 4 5 11 30 15 55 4 25 11 50 15 55 4 6 11 30 15 55
4 25 11 50 15 55 4 6 11 32 15 59 3 27 10 56 15 65 9 17 24 73 41 151 5 25 14
52 18 60 5 9 12 36 16 60 4 25 11 50 15 55 4 6 11 30 15 55 4 25 10 50 14 55
6 10 21 70 44 173 6 28 15 52 19 52 4 0 8 10 8 23 0 12 3 32 6 45 6 21 10 23
48 16 22 -3 43 -10 46 -14z m5217 -845 c80 -315 107 -543 107 -900 0 -327 -16
-490 -78 -780 -30 -143 -37 -170 -46 -187 -6 -10 -10 -24 -10 -32 0 -18 -99
-316 -109 -331 -4 -5 -16 -32 -26 -60 -18 -51 -174 -376 -184 -385 -10 -8 -42
-64 -48 -82 -3 -10 -9 -18 -14 -18 -5 0 -9 -6 -9 -13 0 -11 -121 -198 -144
-223 -6 -6 -18 -22 -26 -34 -22 -33 -83 -114 -90 -120 -3 -3 -24 -27 -45 -54
-118 -147 -281 -310 -463 -461 -13 -11 -40 -35 -60 -52 -20 -18 -40 -33 -43
-33 -3 0 -19 -11 -35 -25 -16 -14 -47 -38 -69 -53 -22 -15 -41 -30 -43 -34 -2
-5 -10 -8 -18 -8 -8 0 -17 -7 -20 -15 -4 -8 -12 -15 -19 -15 -8 0 -20 -6 -27
-12 -8 -7 -23 -18 -33 -25 -160 -97 -228 -136 -325 -185 -63 -32 -120 -58
-127 -58 -7 0 -13 -4 -13 -9 0 -5 -13 -12 -30 -16 -16 -4 -32 -11 -35 -16 -4
-5 -13 -9 -21 -9 -14 0 -88 -29 -124 -49 -9 -5 -30 -12 -48 -15 -17 -4 -34
-12 -37 -17 -4 -5 -15 -9 -27 -9 -11 0 -34 -6 -51 -14 -30 -13 -48 -18 -159
-47 -24 -6 -52 -15 -63 -19 -11 -5 -47 -14 -80 -20 -33 -6 -94 -18 -135 -26
-356 -72 -810 -83 -1185 -30 -138 20 -323 55 -395 75 -19 6 -69 20 -110 31
-41 12 -82 25 -91 30 -9 5 -34 12 -55 16 -22 4 -41 10 -44 13 -3 3 -30 14 -60
25 -30 10 -73 26 -95 36 -22 10 -64 26 -93 36 -28 10 -52 22 -52 26 0 5 -5 8
-12 8 -11 0 -218 100 -228 110 -3 3 -16 11 -30 18 -37 18 -109 61 -158 93 -24
16 -47 29 -52 29 -4 0 -10 3 -12 8 -2 4 -39 32 -83 62 -88 60 -86 58 -135 100
-19 16 -38 30 -41 30 -3 0 -17 10 -31 22 -14 13 -57 50 -94 83 -77 67 -299
286 -359 355 -39 45 -67 78 -140 170 -20 25 -43 53 -51 63 -8 9 -14 19 -14 22
0 4 -48 71 -78 110 -9 11 -158 264 -185 312 -40 74 -96 187 -106 214 -9 27 1
50 13 30 3 -5 30 -12 59 -16 28 -4 57 -11 62 -15 6 -4 30 -11 55 -15 25 -4 50
-11 55 -15 6 -4 31 -11 57 -14 26 -4 50 -11 53 -15 2 -5 28 -11 57 -15 29 -4
58 -11 64 -17 6 -5 38 -12 71 -15 l60 -7 6 29 c3 16 12 54 21 84 8 30 23 82
31 115 16 59 34 123 60 220 8 28 19 70 25 95 6 25 15 52 20 62 5 9 12 39 16
67 4 28 10 51 14 51 4 0 11 25 15 55 3 30 10 57 15 60 4 3 11 28 15 55 4 27
11 52 15 55 4 3 11 28 15 55 4 27 11 52 15 55 4 3 11 28 15 55 4 27 11 52 15
55 4 3 11 28 15 55 4 27 11 52 15 55 4 3 11 28 15 55 4 27 11 52 16 56 5 3 9
17 9 32 0 43 14 58 42 45 13 -7 43 -16 68 -22 25 -5 70 -16 100 -24 30 -9 81
-22 113 -30 33 -8 62 -19 66 -23 12 -14 30 -108 42 -214 6 -52 17 -146 25
-207 8 -62 21 -164 29 -225 7 -62 21 -171 30 -243 21 -165 41 -320 59 -460 41
-312 36 -299 109 -311 20 -4 37 -10 37 -14 0 -5 22 -11 50 -15 27 -4 52 -11
55 -15 3 -4 28 -11 55 -15 27 -4 52 -11 55 -15 3 -4 28 -11 55 -15 27 -4 52
-11 55 -15 3 -4 28 -11 55 -15 27 -4 52 -11 55 -15 3 -4 28 -11 55 -15 27 -4
52 -10 55 -15 3 -4 26 -11 52 -15 27 -4 53 -10 58 -15 6 -4 31 -11 57 -14 26
-4 50 -11 53 -16 3 -4 29 -11 58 -15 28 -4 54 -11 57 -15 3 -4 25 -10 49 -14
l44 -7 -8 73 c-3 40 -10 78 -15 83 -4 6 -11 43 -15 83 -4 39 -11 74 -15 77 -4
3 -11 35 -15 72 -4 36 -11 74 -15 82 -5 9 -14 46 -20 84 -5 37 -15 97 -20 135
-6 37 -15 74 -20 83 -4 8 -11 46 -15 82 -4 37 -11 69 -15 72 -4 3 -11 38 -15
77 -4 40 -11 78 -15 83 -4 6 -11 39 -15 75 -4 36 -11 70 -15 75 -4 6 -11 39
-15 75 -4 36 -11 70 -15 75 -4 6 -11 39 -15 75 -4 36 -11 70 -15 75 -4 6 -11
41 -15 79 -4 38 -11 77 -15 85 -5 9 -13 45 -18 81 -5 36 -13 74 -17 84 -7 16
-5 18 11 12 10 -4 50 -26 87 -49 38 -23 87 -53 110 -66 23 -13 61 -37 85 -52
24 -16 45 -29 48 -29 2 0 35 -19 72 -42 80 -51 102 -65 122 -74 8 -4 17 -10
20 -14 3 -3 57 -37 120 -75 63 -38 123 -79 133 -92 10 -12 28 -25 40 -29 12
-4 24 -10 27 -13 8 -12 127 -81 138 -81 11 0 74 -31 82 -41 3 -3 38 -26 78
-50 40 -24 85 -52 100 -61 15 -10 34 -21 42 -25 8 -3 17 -9 20 -12 3 -4 16
-12 30 -19 14 -7 39 -21 55 -32 17 -11 38 -23 48 -26 9 -4 17 -10 17 -14 0 -5
10 -12 22 -16 12 -3 39 -19 61 -35 22 -16 46 -29 53 -29 7 0 14 -3 16 -8 2 -6
62 -44 213 -135 18 -11 70 -43 120 -74 11 -7 27 -16 35 -20 8 -4 45 -26 82
-50 36 -24 71 -43 76 -43 6 0 12 -4 14 -8 2 -5 55 -39 118 -77 63 -38 117 -71
120 -75 3 -3 16 -11 30 -18 14 -7 39 -21 55 -32 17 -11 38 -23 48 -26 9 -4 17
-10 17 -15 0 -5 5 -9 10 -9 6 0 34 -16 63 -35 28 -19 57 -35 64 -35 6 0 13 -4
15 -8 3 -8 271 -174 318 -197 11 -5 20 -13 20 -17 0 -5 6 -8 14 -8 8 0 21 -6
28 -12 18 -16 46 -35 78 -50 14 -7 31 -18 38 -25 7 -7 20 -13 28 -13 8 0 14
-4 14 -9 0 -5 8 -11 18 -14 21 -7 71 -37 90 -54 26 -24 41 -14 48 32 3 25 10
45 14 45 5 0 11 19 15 43 4 23 11 47 15 52 4 6 11 29 15 52 4 24 11 45 15 48
5 3 12 26 16 50 3 25 10 48 15 50 4 3 11 26 15 50 3 25 10 45 14 45 4 0 10 18
14 40 3 23 10 49 15 58 5 9 16 42 24 72 29 98 59 194 68 218 17 44 11 72 -21
90 -16 9 -30 20 -30 25 0 4 -6 7 -14 7 -8 0 -21 6 -28 13 -18 15 -46 34 -78
49 -14 7 -31 18 -38 25 -7 7 -20 13 -28 13 -8 0 -14 3 -14 8 0 7 -9 13 -66 42
-16 8 -35 20 -42 27 -7 7 -20 13 -28 13 -8 0 -14 4 -14 9 0 5 -8 11 -17 14
-22 7 -72 37 -91 55 -7 6 -20 12 -28 12 -8 0 -14 5 -14 10 0 6 -6 10 -13 10
-8 0 -24 9 -37 20 -13 11 -29 20 -37 20 -7 0 -13 4 -13 10 0 5 -11 12 -25 16
-14 3 -25 10 -25 14 0 4 -8 10 -17 13 -22 7 -72 37 -91 55 -7 6 -20 12 -28 12
-16 0 -20 45 -5 54 5 4 12 24 16 46 4 22 10 42 15 45 4 3 11 25 14 50 4 24 11
47 16 50 5 3 12 26 16 50 3 25 10 48 15 50 4 3 11 26 15 50 3 25 10 45 14 45
5 0 11 23 15 50 4 28 11 50 15 50 4 0 11 22 15 50 4 27 11 52 15 55 5 3 12 26
16 50 3 25 10 45 14 45 4 0 11 20 14 45 4 24 11 47 15 50 5 2 12 25 15 50 4
24 11 47 16 50 5 3 12 26 16 50 3 25 10 48 15 50 4 3 11 26 15 50 3 25 10 45
14 45 4 0 11 19 14 43 11 70 24 79 103 74 37 -2 160 -10 273 -16 113 -6 248
-16 300 -21 52 -5 156 -12 232 -15 l136 -5 7 40 c4 22 10 42 15 45 4 3 11 22
15 42 4 21 10 43 15 48 4 6 11 28 15 50 4 22 10 45 15 50 4 6 11 27 14 49 4
21 11 46 16 55 4 9 18 50 30 91 12 41 25 82 29 90 5 9 12 35 16 58 4 23 11 44
16 48 5 3 9 14 9 24 0 10 5 31 11 47 l12 28 14 -45 c8 -25 21 -72 30 -105z
m-3392 -445 c440 -28 600 -35 606 -27 4 6 64 5 155 -2 81 -7 234 -16 341 -21
106 -5 199 -12 207 -17 12 -7 12 -14 1 -48 -7 -22 -23 -74 -35 -115 -13 -41
-28 -93 -35 -115 -7 -22 -21 -67 -30 -100 -10 -33 -21 -69 -25 -80 -5 -11 -18
-54 -30 -95 -12 -41 -28 -93 -35 -115 -7 -22 -21 -67 -31 -100 -24 -83 -37
-115 -47 -115 -5 0 -21 8 -35 18 -15 10 -34 22 -42 25 -15 7 -33 18 -80 48
-14 9 -47 29 -75 44 -27 16 -68 40 -90 54 -22 14 -53 32 -70 41 -80 44 -100
55 -105 60 -3 3 -71 45 -152 94 -82 48 -148 92 -148 97 0 6 -12 15 -27 22 -16
7 -46 24 -68 38 -22 14 -47 29 -55 32 -8 4 -28 16 -45 27 -16 11 -39 24 -50
30 -11 6 -29 16 -40 23 -145 87 -236 137 -248 137 -8 0 -25 8 -37 18 l-23 18
39 73 39 73 55 -6 c30 -3 127 -10 215 -16z"/>
<path d="M3550 2003 c-3 -23 -2 -39 3 -34 5 5 7 24 5 42 -3 33 -4 33 -8 -8z"/>
<path d="M3526 1911 c-3 -5 -7 -32 -10 -60 -2 -28 -8 -57 -14 -64 -5 -6 -13
-39 -17 -71 -4 -33 -11 -66 -15 -75 -9 -17 -24 -101 -41 -236 -6 -44 -14 -89
-19 -100 -11 -26 -22 -151 -13 -141 8 8 27 83 44 176 5 30 14 62 18 70 5 9 12
45 16 80 4 36 11 70 15 75 4 6 11 46 15 90 4 44 11 85 15 90 8 10 22 175 15
175 -2 0 -6 -4 -9 -9z"/>
<path d="M3372 1070 c0 -14 2 -19 5 -12 2 6 2 18 0 25 -3 6 -5 1 -5 -13z"/>
</g>
</svg>
