<svg width="65" height="21" viewBox="0 0 65 21" fill="none" xmlns="http://www.w3.org/2000/svg">
<path fill-rule="evenodd" clip-rule="evenodd" d="M61.875 9.68415L56.0843 3.89342L57.1449 2.83276L64.216 9.90383L64.7463 10.4342L64.216 10.9645L57.1449 18.0356L56.0843 16.9749L61.875 11.1841L45.5439 11.1841V9.68415L61.875 9.68415Z" fill="url(#paint0_linear)"/>
<path d="M5.06795 15.5901C7.33595 15.5901 8.91995 13.8261 8.91995 10.9821C8.91995 8.13808 7.33595 6.43408 5.06795 6.43408C2.79995 6.43408 1.22795 8.13808 1.22795 10.9821C1.22795 13.8261 2.79995 15.5901 5.06795 15.5901ZM5.06795 14.3781C3.60395 14.3781 2.65595 13.0461 2.65595 10.9821C2.65595 8.90608 3.60395 7.64608 5.06795 7.64608C6.53195 7.64608 7.49195 8.90608 7.49195 10.9821C7.49195 13.0461 6.53195 14.3781 5.06795 14.3781ZM11.3548 15.4341H12.7468V12.0861H14.0788C15.9988 12.0861 17.4028 11.1981 17.4028 9.26608C17.4028 7.27408 15.9988 6.59008 14.0308 6.59008H11.3548V15.4341ZM12.7468 10.9701V7.71808H13.8988C15.3028 7.71808 16.0348 8.10208 16.0348 9.26608C16.0348 10.4301 15.3628 10.9701 13.9468 10.9701H12.7468ZM19.7244 15.4341H25.0764V14.2581H21.1164V11.4021H24.3564V10.2261H21.1164V7.76608H24.9444V6.59008H19.7244V15.4341ZM27.5197 15.4341H28.8397V11.2701C28.8397 10.3101 28.7317 9.29008 28.6597 8.37808H28.7197L29.6437 10.2261L32.5717 15.4341H33.9997V6.59008H32.6797V10.7181C32.6797 11.6781 32.7877 12.7461 32.8597 13.6581H32.7997L31.8757 11.7861L28.9477 6.59008H27.5197V15.4341Z" fill="url(#paint1_linear)"/>
<defs>
<linearGradient id="paint0_linear" x1="65.0907" y1="15.3232" x2="56.0056" y2="1.63998" gradientUnits="userSpaceOnUse">
<stop stop-color="#007BFF"/>
<stop offset="1" stop-color="#01CAF8"/>
</linearGradient>
<linearGradient id="paint1_linear" x1="36.1716" y1="16.8658" x2="26.0637" y2="-4.22669" gradientUnits="userSpaceOnUse">
<stop stop-color="#007BFF"/>
<stop offset="1" stop-color="#01CAF8"/>
</linearGradient>
</defs>
</svg>
